<svg xmlns="http://www.w3.org/2000/svg" version="1.1" xmlns:xlink="http://www.w3.org/1999/xlink" xmlns:svgjs="http://svgjs.dev/svgjs" width="64" height="64"><svg width="64" height="64" viewBox="0 0 64 64" fill="none" xmlns="http://www.w3.org/2000/svg">
<path fill-rule="evenodd" clip-rule="evenodd" d="M8 8.00004C8 6.52728 9.19391 5.33337 10.6667 5.33337H16C17.4728 5.33337 18.6667 6.52728 18.6667 8.00004V10.8504L53.5233 13.3402C54.2614 13.3929 54.9443 13.7499 55.4089 14.3258C55.8734 14.9017 56.0778 15.6447 55.9732 16.3772L53.3065 35.0438C53.1189 36.3576 51.9937 37.3334 50.6667 37.3334H18.6667V42.6667H30.6667C32.1394 42.6667 33.3333 43.8606 33.3333 45.3334C33.3333 46.8061 32.1394 48 30.6667 48H23.5425C23.8425 48.8486 24 49.7495 24 50.6667C24 52.7884 23.1571 54.8233 21.6569 56.3236C20.1566 57.8238 18.1217 58.6667 16 58.6667C13.8783 58.6667 11.8434 57.8238 10.3431 56.3236C8.84285 54.8233 8 52.7884 8 50.6667C8 48.545 8.84285 46.5101 10.3431 45.0099C11.1949 44.1581 12.2189 43.5183 13.3333 43.1242V13.3609C13.3332 13.3444 13.3332 13.3279 13.3333 13.3114V10.6667H10.6667C9.19391 10.6667 8 9.4728 8 8.00004ZM18.6667 16.1973V32H48.3539L50.2887 18.456L18.6667 16.1973ZM16 48C15.2928 48 14.6145 48.281 14.1144 48.7811C13.6143 49.2812 13.3333 49.9595 13.3333 50.6667C13.3333 51.3739 13.6143 52.0522 14.1144 52.5523C14.6145 53.0524 15.2928 53.3334 16 53.3334C16.7072 53.3334 17.3855 53.0524 17.8856 52.5523C18.3857 52.0522 18.6667 51.3739 18.6667 50.6667C18.6667 49.9595 18.3857 49.2812 17.8856 48.7811C17.3855 48.281 16.7072 48 16 48ZM54.1144 43.4478C55.1558 42.4064 56.8442 42.4064 57.8856 43.4478C58.927 44.4892 58.927 46.1776 57.8856 47.219L47.219 57.8857C46.1776 58.9271 44.4891 58.9271 43.4477 57.8857L38.1144 52.5523C37.073 51.5109 37.073 49.8225 38.1144 48.7811C39.1558 47.7397 40.8442 47.7397 41.8856 48.7811L45.3333 52.2288L54.1144 43.4478Z" fill="black"></path>
</svg><style>@media (prefers-color-scheme: light) { :root { filter: none; } }
@media (prefers-color-scheme: dark) { :root { filter: none; } }
</style></svg>